Coordinates
version=1
nRows=19
nColumns=36
inDegrees=yes

Units are S.I. units (second, meters, Newtons, ...)
If the header above contains a line with 'inDegrees', this indicates whether rotational values are in degrees (yes) or radians (no).

endheader
time	pelvis_tilt	pelvis_list	pelvis_rotation	pelvis_tx	pelvis_ty	pelvis_tz	hip_flexion_r	hip_adduction_r	hip_rotation_r	knee_angle_r	knee_angle_r_beta	ankle_angle_r	subtalar_angle_r	mtp_angle_r	hip_flexion_l	hip_adduction_l	hip_rotation_l	knee_angle_l	knee_angle_l_beta	ankle_angle_l	subtalar_angle_l	mtp_angle_l	lumbar_extension	lumbar_bending	lumbar_rotation	arm_flex_r	arm_add_r	arm_rot_r	elbow_flex_r	pro_sup_r	arm_flex_l	arm_add_l	arm_rot_l	elbow_flex_l	pro_sup_l
      1.05000000	     -0.99937268	     -0.22363168	     -3.14492153	      1.05918652	      0.95135729	     -0.27412571	     23.19123426	      1.48371680	      0.30322462	      3.91996073	      0.06841622	     -1.18419578	     -8.55780968	     -7.39919114	    -12.89167727	      3.16604087	     -1.80435333	      1.96135872	      0.03423217	     10.36417493	     -4.98126464	     -7.39919114	     -9.57822592	     -6.09008453	     -1.57813601	      0.10713651	     -5.61002857	     -6.56501304	     31.84040557	    110.97097881	     11.58247942	    -10.40906424	      9.75152863	     30.42795658	    105.89666133
      1.06000000	     -0.93020965	     -0.13125820	     -3.08906295	      1.07084764	      0.94863615	     -0.27502293	     23.21814019	      1.37121571	      0.62700145	      1.95163866	      0.03406252	     -0.65585855	     -7.37538806	     -7.40060532	    -13.82480521	      3.37607897	     -1.83974850	      1.88813428	      0.03295416	     10.82742246	     -4.82255621	     -7.40060532	     -9.60506267	     -5.60794906	     -1.77673702	     -0.00486664	     -5.69236866	     -7.10335458	     31.64407075	    110.86633163	     11.81121675	    -10.56552513	     10.41452024	     31.02949988	    105.97128275
      1.07000000	     -1.03966185	      0.08877920	     -3.08808059	      1.08229801	      0.94552529	     -0.27585681	     23.88644570	      1.17683715	      0.42391227	      1.08037358	      0.01885608	     -0.29164151	     -7.14086134	     -7.40096117	    -14.47394595	      3.72086585	     -2.04382627	      1.90498183	      0.03324821	     11.03939482	     -4.83129341	     -7.40096117	     -9.47191294	     -5.26539948	     -1.94088680	     -0.10118224	     -5.86033723	     -7.28099515	     31.55478596	    110.78344989	     12.12507413	    -10.57561294	     10.58990913	     31.31894958	    105.97538683
      1.08000000	     -0.75424122	      0.08277259	     -2.99328233	      1.09440648	      0.94300946	     -0.27657726	     24.10164532	      1.10190077	     -0.98777730	      0.69784033	      0.01217961	      2.62254016	     -2.55660483	     -7.40831212	    -15.59743226	      3.75962907	     -2.43153110	      2.02884783	      0.03541007	     12.10034122	     -3.50352358	     -7.40831212	     -9.74735477	     -4.67022480	     -1.68563928	     -0.62410034	     -5.62663999	     -9.79708404	     31.93903180	    110.83002415	     12.75987325	    -10.89450678	     13.29679975	     31.51067319	    106.15859699
      1.09000000	     -0.71031548	      0.15375027	     -2.95216865	      1.10639775	      0.94015694	     -0.27714235	     24.58327740	      1.04907861	     -1.52487012	      0.56892065	      0.00992954	      3.70076096	     -1.25536027	     -7.41334130	    -16.40829191	      3.87851307	     -2.67575677	      2.17150767	      0.03789996	     12.54886556	     -3.06863500	     -7.41334130	     -9.77098520	     -4.18654214	     -1.72017390	     -0.84863671	     -5.60583895	    -10.81025527	     31.94591008	    110.87942998	     13.06945010	    -11.04192655	     14.28456538	     31.89956652	    106.12707913
      1.10000000	     -0.65431077	      0.14218781	     -2.91389245	      1.11858148	      0.93739369	     -0.27755846	     24.89707995	      1.11648136	     -1.45433214	      0.51356433	      0.00896339	      4.27078620	     -1.22334422	     -7.41412408	    -17.23451696	      3.89796010	     -2.71295515	      2.35279285	      0.04106398	     12.77187207	     -3.03256189	     -7.41412408	     -9.80105225	     -3.62704923	     -1.79883544	     -0.98639953	     -5.68770330	    -11.07897910	     31.77328983	    110.85524420	     13.25410375	    -11.05297349	     14.50412243	     32.23286252	    106.16357015
      1.11000000	     -0.46919028	      0.09807380	     -2.84383311	      1.13112634	      0.93490892	     -0.27783642	     24.91903831	      1.19898447	     -1.36885409	      0.55031980	      0.00960489	      4.85206131	     -0.95568588	     -7.41625528	    -18.18230702	      3.84159271	     -2.88513252	      2.60328068	      0.04543582	     13.03639659	     -2.58419177	     -7.41625528	     -9.95055322	     -3.05867839	     -1.93355592	     -1.13841398	     -5.67521582	    -11.93377214	     31.72214054	    110.77708681	     13.36184093	    -11.17819726	     15.03269683	     32.70743395	    106.23542600
      1.12000000	     -0.35189341	     -0.06364755	     -2.75245158	      1.14396212	      0.93249938	     -0.27805608	     24.86367521	      1.40988227	     -1.03667767	      0.66205241	      0.01155499	      5.17333129	     -1.21382655	     -7.41703062	    -19.00624929	      3.64006529	     -2.94893261	      2.97130013	      0.05185897	     13.12706560	     -2.52198318	     -7.41703062	    -10.01308796	     -2.33943132	     -2.01634145	     -1.34547055	     -5.76699621	    -12.29198261	     31.60917636	    110.73483618	     13.45077747	    -11.11163097	     15.17379433	     32.88569658	    106.26297148
      1.13000000	     -0.14011947	     -0.30991841	     -2.67947718	      1.15715909	      0.93032355	     -0.27806425	     24.56693455	      1.74001125	     -0.52600414	      0.87070784	      0.01519672	      5.37578814	     -1.90024877	     -7.41805209	    -19.91060366	      3.33793792	     -3.09814000	      3.42418972	      0.05976338	     13.18809365	     -2.41063490	     -7.41805209	    -10.14775707	     -1.56004667	     -2.07073477	     -1.55786560	     -5.81368034	    -12.87975149	     31.51657876	    110.65965224	     13.45913726	    -11.07336252	     15.31341079	     33.13929640	    106.30864637
      1.14000000	     -0.06718256	     -0.52440051	     -2.64473443	      1.17049972	      0.92810968	     -0.27794693	     24.44966046	      2.05584035	     -0.05408482	      1.39421611	      0.02433366	      5.35640916	     -2.19192190	     -7.41836677	    -20.62367419	      3.07015645	     -2.96342041	      3.96728829	      0.06924224	     13.04349398	     -2.34390932	     -7.41836677	    -10.08039595	     -0.81265411	     -2.11289336	     -1.75936695	     -5.88904046	    -13.11371655	     31.41537918	    110.62446433	     13.39385823	    -10.98336909	     15.34264732	     33.23957634	    106.32718370
      1.15000000	      0.06772058	     -0.91222765	     -2.68890892	      1.18418971	      0.92605653	     -0.27735981	     24.08415401	      2.68840079	      1.20447472	      1.84037419	      0.03212059	      4.13739152	     -5.34257437	     -7.42226707	    -21.26268526	      2.59304919	     -3.66409092	      4.81074992	      0.08396343	     13.15422694	     -1.89622273	     -7.42226707	    -10.09907829	      0.09804437	     -1.89462291	     -2.16630059	     -5.60419366	    -15.30380302	     31.77158269	    110.44551015	     13.21501537	    -10.80328474	     14.99450406	     33.65130888	    106.43872603
      1.16000000	      0.15888539	     -1.32115352	     -2.71006950	      1.19816416	      0.92417795	     -0.27684207	     23.89840032	      3.29141884	      1.28827485	      2.73812273	      0.04778926	      3.90050555	     -5.89766251	     -7.42308555	    -21.85349664	      2.11704530	     -3.86341654	      5.67037788	      0.09896676	     12.84230605	     -2.11021663	     -7.42308555	     -9.98499065	      1.03513841	     -1.81867505	     -2.43704100	     -5.69923112	    -15.56526994	     31.60979796	    110.44388325	     13.00140942	    -10.64381016	     14.92690364	     33.66102970	    106.46447017
      1.17000000	      0.16434177	     -1.74928971	     -2.77169960	      1.21233855	      0.92239661	     -0.27612376	     23.79404076	      3.95147629	      1.32793670	      3.71395582	      0.06482076	      3.02629279	     -6.61508493	     -7.42408768	    -22.25361746	      1.61238512	     -4.20030953	      6.71120849	      0.11713268	     12.33381844	     -2.35663823	     -7.42408768	     -9.74017037	      1.97730735	     -1.72651724	     -2.72365155	     -5.73815846	    -16.04545794	     31.46407021	    110.41937977	     12.67181982	    -10.44512907	     14.67088179	     33.69551270	    106.48055046
      1.18000000	      0.03912290	     -2.18229615	     -2.87330555	      1.22666102	      0.92068622	     -0.27513976	     23.67917945	      4.67492238	      1.93780557	      4.43934453	      0.07748118	      0.86153771	     -8.43790807	     -7.42709596	    -22.42080173	      1.08782847	     -4.48395377	      7.92514206	      0.13831982	     11.73687993	     -2.53308530	     -7.42709596	     -9.33664072	      2.92512352	     -1.66271194	     -3.01114938	     -5.59129597	    -17.28526721	     31.47349800	    110.41480796	     12.14208397	    -10.14546928	     13.69197336	     33.79093611	    106.52136432
      1.19000000	      0.05791074	     -2.74865852	     -2.97665288	      1.24131213	      0.91946401	     -0.27413572	     23.44260104	      5.47959773	      1.78372391	      5.33928728	      0.09318814	     -0.48975068	     -8.68593698	     -7.42806069	    -22.68583451	      0.42809592	     -4.96589872	      9.24817587	      0.16141112	     10.85710940	     -2.88689141	     -7.42806069	     -9.07556557	      3.99652018	     -1.49241365	     -3.31065185	     -5.68323728	    -17.57414171	     31.24858746	    110.42110114	     11.69179725	     -9.90370490	     13.47976224	     33.78005493	    106.54885530
      1.20000000	     -0.04351661	     -3.32180203	     -3.11941687	      1.25607108	      0.91841356	     -0.27289404	     23.19617088	      6.34532250	      2.28931364	      5.98767894	      0.10450471	     -3.16628691	    -10.48598454	     -7.43193000	    -22.68922861	     -0.25296934	     -5.35844127	     10.79446384	      0.18839893	      9.78418258	     -3.36439235	     -7.43193000	     -8.65548624	      5.07570779	     -1.40608856	     -3.55507154	     -5.62304848	    -18.48319186	     31.08478236	    110.49286486	     11.03629170	     -9.53527886	     12.41731129	     33.79452286	    106.63042090
      1.21000000	     -0.05564435	     -3.96490786	     -3.23321820	      1.27103535	      0.91779424	     -0.27170194	     22.95503440	      7.18379032	      2.10410920	      6.95066759	      0.12131203	     -4.54749914	    -10.52251538	     -7.43285328	    -22.62754921	     -1.04543568	     -5.92694495	     12.60629319	      0.22002132	      8.47813561	     -3.77603737	     -7.43285328	     -8.31338769	      6.22101590	     -1.25889629	     -3.83397286	     -5.73074423	    -18.70907030	     30.81124798	    110.48674778	     10.48246915	     -9.25527958	     12.21976135	     33.63319145	    106.63840068
      1.22000000	     -0.03249761	     -4.62755303	     -3.34469801	      1.28609219	      0.91755475	     -0.27046820	     22.68112152	      8.03183372	      2.06025775	      8.03893771	      0.14030593	     -5.67294538	    -10.86929100	     -7.43356421	    -22.40707153	     -1.89065530	     -6.48348838	     14.75271895	      0.25748352	      6.96231579	     -4.26215167	     -7.43356421	     -8.03429930	      7.37412835	     -1.09781646	     -4.08507832	     -5.83891935	    -18.99438400	     30.51049313	    110.45567778	      9.92342621	     -8.93507402	     11.92993673	     33.42324206	    106.61178637
      1.23000000	     -0.03621445	     -5.33033108	     -3.50334932	      1.30119007	      0.91757199	     -0.26909794	     22.46655818	      8.94116648	      2.21887397	      9.32709421	      0.16278850	     -6.58017708	    -11.67921701	     -7.43438977	    -21.92901447	     -2.81621694	     -7.11515824	     17.25009348	      0.30107093	      5.16094649	     -4.92817737	     -7.43438977	     -7.68246641	      8.54036242	     -0.92621581	     -4.29655610	     -5.93768382	    -19.37490413	     30.19362666	    110.41118710	      9.28027039	     -8.56825696	     11.47744264	     33.15633828	    106.55842952
